<svg width="102" height="48" viewBox="0 0 102 48" fill="none" xmlns="http://www.w3.org/2000/svg">
<g id="Battery">
<path id="Rectangle" opacity="0.35" d="M1.32605 3.30454C1.32605 2.10793 2.2961 1.13788 3.49272 1.13788H89.029C90.2256 1.13788 91.1956 2.10793 91.1956 3.30455V44.7828C91.1956 45.9794 90.2256 46.9495 89.029 46.9495H3.49271C2.2961 46.9495 1.32605 45.9794 1.32605 44.7828V3.30454Z" stroke="white"/>
<path id="Combined Shape" opacity="0.4" d="M95.826 15.7828V32.3045C99.1499 30.9053 101.311 27.6501 101.311 24.0437C101.311 20.4373 99.1499 17.1821 95.826 15.7828Z" fill="white"/>
<path id="Rectangle_2" d="M9.08691 10.2321C9.08691 9.4957 9.68387 8.89875 10.4202 8.89875H82.1014C82.8378 8.89875 83.4347 9.4957 83.4347 10.2321V37.8553C83.4347 38.5917 82.8378 39.1886 82.1014 39.1886H10.4202C9.68387 39.1886 9.08691 38.5917 9.08691 37.8553V10.2321Z" fill="white"/>
</g>
</svg>
