<svg width="118" height="47" viewBox="0 0 118 47" fill="none" xmlns="http://www.w3.org/2000/svg">
<g id="Date">
<g id="9:41">
<path d="M16.1507 46.7545C27.2533 46.7545 33.8483 38.0721 33.8483 23.3695C33.8483 17.8334 32.7894 13.1746 30.7625 9.57454C27.8281 3.97788 22.776 0.95266 16.3927 0.95266C6.89354 0.95266 0.177551 7.33588 0.177551 16.2905C0.177551 24.7006 6.22799 30.8116 14.5474 30.8116C19.66 30.8116 23.8045 28.4217 25.8617 24.2771H25.9524C25.9524 24.2771 26.0734 24.2771 26.1037 24.2771C26.1642 24.2771 26.376 24.2771 26.376 24.2771C26.376 34.2603 22.5944 40.22 16.2112 40.22C12.4599 40.22 9.55574 38.1629 8.55741 34.8654H0.782595C2.08344 42.0352 8.16413 46.7545 16.1507 46.7545ZM16.423 24.6099C11.4011 24.6099 7.83136 21.0401 7.83136 16.0485C7.83136 11.1779 11.5826 7.45688 16.4532 7.45688C21.3238 7.45688 25.0751 11.2384 25.0751 16.1695C25.0751 21.0401 21.4146 24.6099 16.423 24.6099Z" fill="white"/>
<path d="M46.6159 46.331C49.4899 46.331 51.4563 44.2738 51.4563 41.5511C51.4563 38.7982 49.4899 36.7713 46.6159 36.7713C43.7722 36.7713 41.7755 38.7982 41.7755 41.5511C41.7755 44.2738 43.7722 46.331 46.6159 46.331ZM46.6159 23.6418C49.4899 23.6418 51.4563 21.6149 51.4563 18.8922C51.4563 16.1393 49.4899 14.1124 46.6159 14.1124C43.7722 14.1124 41.7755 16.1393 41.7755 18.8922C41.7755 21.6149 43.7722 23.6418 46.6159 23.6418Z" fill="white"/>
<path d="M79.7735 45.6957H87.2458V37.5578H93.145V30.9628H87.2458V2.04174H76.234C68.5197 13.6586 62.3785 23.3695 58.4457 30.5998V37.5578H79.7735V45.6957ZM65.676 30.6906C70.7584 21.7359 75.2962 14.5662 79.471 8.3947H79.8945V31.1444H65.676V30.6906Z" fill="white"/>
<path d="M109.785 45.6957H117.59V2.04174H109.815L98.4101 10.0283V17.5309L109.271 9.90731H109.785V45.6957Z" fill="white"/>
</g>
</g>
</svg>
