<svg width="72" height="45" viewBox="0 0 72 45" fill="none" xmlns="http://www.w3.org/2000/svg">
<path id="Mobile Signal" fill-rule="evenodd" clip-rule="evenodd" d="M67.0579 0.0143585H62.9275C60.6463 0.0143585 58.797 1.86362 58.797 4.14479V39.9419C58.797 42.2231 60.6463 44.0723 62.9275 44.0723H67.0579C69.3391 44.0723 71.1883 42.2231 71.1883 39.9419V4.14479C71.1883 1.86362 69.3391 0.0143585 67.0579 0.0143585ZM43.6521 9.65204H47.7825C50.0637 9.65204 51.913 11.5013 51.913 13.7825V39.9419C51.913 42.2231 50.0637 44.0723 47.7825 44.0723H43.6521C41.3709 44.0723 39.5217 42.2231 39.5217 39.9419V13.7825C39.5217 11.5013 41.3709 9.65204 43.6521 9.65204ZM28.5072 19.2897H24.3767C22.0956 19.2897 20.2463 21.139 20.2463 23.4202V39.9419C20.2463 42.2231 22.0956 44.0723 24.3767 44.0723H28.5072C30.7884 44.0723 32.6376 42.2231 32.6376 39.9419V23.4202C32.6376 21.139 30.7884 19.2897 28.5072 19.2897ZM9.23182 27.5506H5.10138C2.82021 27.5506 0.970947 29.3998 0.970947 31.681V39.9419C0.970947 42.2231 2.82021 44.0723 5.10138 44.0723H9.23182C11.513 44.0723 13.3623 42.2231 13.3623 39.9419V31.681C13.3623 29.3998 11.513 27.5506 9.23182 27.5506Z" fill="white"/>
</svg>
