<svg width="65" height="46" viewBox="0 0 65 46" fill="none" xmlns="http://www.w3.org/2000/svg">
<path id="Wifi" fill-rule="evenodd" clip-rule="evenodd" d="M32.4948 10.0331C41.6474 10.0335 50.45 13.5503 57.0833 19.8567C57.5828 20.3436 58.3812 20.3374 58.8731 19.8429L63.6479 15.0241C63.897 14.7733 64.0359 14.4335 64.0338 14.08C64.0317 13.7266 63.8889 13.3885 63.6369 13.1406C46.2267 -3.54449 18.7601 -3.54449 1.34992 13.1406C1.09772 13.3883 0.954625 13.7263 0.952299 14.0798C0.949974 14.4332 1.08861 14.7731 1.33753 15.0241L6.11369 19.8429C6.60533 20.3382 7.40434 20.3443 7.90354 19.8567C14.5376 13.5499 23.3413 10.0331 32.4948 10.0331ZM32.4948 25.7109C37.5235 25.7106 42.3728 27.5797 46.1004 30.9552C46.6046 31.4342 47.3988 31.4238 47.8903 30.9318L52.6596 26.1129C52.9107 25.8602 53.0501 25.5173 53.0465 25.161C53.0428 24.8046 52.8965 24.4647 52.6403 24.2171C41.289 13.6581 23.7102 13.6581 12.3589 24.2171C12.1025 24.4647 11.9562 24.8048 11.9528 25.1612C11.9495 25.5177 12.0893 25.8605 12.341 26.1129L17.1089 30.9318C17.6004 31.4238 18.3946 31.4342 18.8988 30.9552C22.6239 27.582 27.4693 25.713 32.4948 25.7109ZM42.0485 36.2593C42.0557 36.6166 41.9153 36.9611 41.6602 37.2114L33.4104 45.537C33.1685 45.7817 32.8388 45.9194 32.4948 45.9194C32.1508 45.9194 31.821 45.7817 31.5792 45.537L23.328 37.2114C23.0731 36.9609 22.9328 36.6163 22.9404 36.259C22.948 35.9017 23.1026 35.5633 23.3679 35.3238C28.6366 30.8675 36.353 30.8675 41.6217 35.3238C41.8867 35.5635 42.0412 35.902 42.0485 36.2593Z" fill="white"/>
</svg>
